<svg xmlns="http://www.w3.org/2000/svg" xmlns:xlink="http://www.w3.org/1999/xlink" width="210" zoomAndPan="magnify" viewBox="0 0 157.5 149.999998" height="200" preserveAspectRatio="xMidYMid meet" version="1.0"><defs><g/><clipPath id="503621ec49"><path d="M 0 0.238281 L 156.535156 0.238281 L 156.535156 149.761719 L 0 149.761719 Z M 0 0.238281 " clip-rule="nonzero"/></clipPath><clipPath id="be02081271"><path d="M 17.195312 0.238281 L 139.242188 0.238281 C 143.804688 0.238281 148.175781 2.050781 151.402344 5.273438 C 154.628906 8.5 156.4375 12.871094 156.4375 17.433594 L 156.4375 132.566406 C 156.4375 137.128906 154.628906 141.5 151.402344 144.726562 C 148.175781 147.949219 143.804688 149.761719 139.242188 149.761719 L 17.195312 149.761719 C 12.636719 149.761719 8.261719 147.949219 5.035156 144.726562 C 1.8125 141.5 0 137.128906 0 132.566406 L 0 17.433594 C 0 12.871094 1.8125 8.5 5.035156 5.273438 C 8.261719 2.050781 12.636719 0.238281 17.195312 0.238281 Z M 17.195312 0.238281 " clip-rule="nonzero"/></clipPath><clipPath id="5255bea979"><path d="M 104.078125 107.035156 L 145 107.035156 L 145 143.980469 L 104.078125 143.980469 Z M 104.078125 107.035156 " clip-rule="nonzero"/></clipPath><clipPath id="640019381f"><path d="M 121.414062 107.179688 L 127.765625 107.179688 C 132.324219 107.179688 136.699219 108.992188 139.921875 112.214844 C 143.148438 115.441406 144.960938 119.8125 144.960938 124.375 L 144.960938 126.785156 C 144.960938 131.347656 143.148438 135.722656 139.921875 138.945312 C 136.699219 142.171875 132.324219 143.980469 127.765625 143.980469 L 121.414062 143.980469 C 116.855469 143.980469 112.480469 142.171875 109.257812 138.945312 C 106.03125 135.722656 104.21875 131.347656 104.21875 126.785156 L 104.21875 124.375 C 104.21875 119.8125 106.03125 115.441406 109.257812 112.214844 C 112.480469 108.992188 116.855469 107.179688 121.414062 107.179688 Z M 121.414062 107.179688 " clip-rule="nonzero"/></clipPath></defs><g clip-path="url(#503621ec49)"><g clip-path="url(#be02081271)"><path fill="#000000" d="M 0 0.238281 L 156.535156 0.238281 L 156.535156 149.761719 L 0 149.761719 Z M 0 0.238281 " fill-opacity="1" fill-rule="nonzero"/></g></g><g fill="#ffffff" fill-opacity="1"><g transform="translate(10.086069, 94.438288)"><g><path d="M 42.792969 -16.589844 L 35.074219 -16.589844 L 35.074219 -48.042969 L 21.0625 -48.042969 L 1.785156 -17.253906 L 1.785156 -9.1875 L 25.222656 -9.1875 L 25.222656 0 L 35.074219 0 L 35.074219 -9.1875 L 42.792969 -9.1875 Z M 10.675781 -16.589844 L 25.222656 -40.816406 L 25.222656 -16.589844 Z M 10.675781 -16.589844 "/></g></g></g><g fill="#ffffff" fill-opacity="1"><g transform="translate(56.125723, 94.438288)"><g><path d="M 22.125 0.648438 C 34.046875 0.648438 41.003906 -7.480469 41.003906 -24.054688 C 41.003906 -40.625 34.109375 -48.691406 22.125 -48.691406 C 10.058594 -48.691406 3.195312 -40.625 3.195312 -24.054688 C 3.195312 -7.480469 10.121094 0.648438 22.125 0.648438 Z M 22.125 -6.59375 C 16.460938 -6.59375 13.09375 -11.6875 13.09375 -24.054688 C 13.09375 -36.546875 16.558594 -41.449219 22.125 -41.449219 C 27.59375 -41.449219 31.121094 -36.546875 31.121094 -24.054688 C 31.121094 -11.6875 27.707031 -6.59375 22.125 -6.59375 Z M 22.125 -6.59375 "/></g></g></g><g fill="#ffffff" fill-opacity="1"><g transform="translate(102.165377, 94.438288)"><g><path d="M 22.125 0.648438 C 34.046875 0.648438 41.003906 -7.480469 41.003906 -24.054688 C 41.003906 -40.625 34.109375 -48.691406 22.125 -48.691406 C 10.058594 -48.691406 3.195312 -40.625 3.195312 -24.054688 C 3.195312 -7.480469 10.121094 0.648438 22.125 0.648438 Z M 22.125 -6.59375 C 16.460938 -6.59375 13.09375 -11.6875 13.09375 -24.054688 C 13.09375 -36.546875 16.558594 -41.449219 22.125 -41.449219 C 27.59375 -41.449219 31.121094 -36.546875 31.121094 -24.054688 C 31.121094 -11.6875 27.707031 -6.59375 22.125 -6.59375 Z M 22.125 -6.59375 "/></g></g></g><g clip-path="url(#5255bea979)"><g clip-path="url(#640019381f)"><path fill="#ffffff" d="M 104.21875 107.179688 L 144.90625 107.179688 L 144.90625 143.980469 L 104.21875 143.980469 Z M 104.21875 107.179688 " fill-opacity="1" fill-rule="nonzero"/></g></g><g fill="#000000" fill-opacity="1"><g transform="translate(113.838583, 128.112316)"><g><path d="M 4.03125 0.140625 C 5.859375 0.140625 7.285156 -0.976562 7.632812 -2.667969 L 6 -2.667969 C 5.710938 -1.871094 4.976562 -1.363281 4.058594 -1.363281 C 2.875 -1.363281 2.039062 -2.230469 2.039062 -3.484375 C 2.039062 -4.738281 2.886719 -5.601562 4.070312 -5.601562 C 4.957031 -5.601562 5.683594 -5.125 5.949219 -4.359375 L 7.582031 -4.359375 C 7.183594 -6.03125 5.792969 -7.105469 4.019531 -7.105469 C 1.910156 -7.105469 0.429688 -5.613281 0.429688 -3.484375 C 0.429688 -1.351562 1.910156 0.140625 4.03125 0.140625 Z M 4.03125 0.140625 "/></g></g></g><g fill="#000000" fill-opacity="1"><g transform="translate(122.14976, 128.112316)"><g><path d="M 0.835938 0 L 2.417969 0 L 2.417969 -2.398438 L 4.945312 -2.398438 L 4.945312 -3.792969 L 2.417969 -3.792969 L 2.417969 -5.53125 L 5.203125 -5.53125 L 5.203125 -6.964844 L 0.835938 -6.964844 Z M 0.835938 0 "/></g></g></g><g fill="#000000" fill-opacity="1"><g transform="translate(128.075083, 128.112316)"><g><path d="M 0.0898438 0 L 1.78125 0 L 2.25 -1.203125 L 5.015625 -1.203125 L 5.484375 0 L 7.175781 0 L 4.410156 -6.964844 L 2.855469 -6.964844 Z M 2.65625 -2.449219 L 3.632812 -4.996094 L 4.617188 -2.449219 Z M 2.65625 -2.449219 "/></g></g></g></svg>