<svg xmlns="http://www.w3.org/2000/svg" xmlns:xlink="http://www.w3.org/1999/xlink" width="210" zoomAndPan="magnify" viewBox="0 0 157.5 149.999998" height="200" preserveAspectRatio="xMidYMid meet" version="1.0"><defs><g/><clipPath id="893a2cfa01"><path d="M 0 0.238281 L 156.535156 0.238281 L 156.535156 149.761719 L 0 149.761719 Z M 0 0.238281 " clip-rule="nonzero"/></clipPath><clipPath id="80c615642f"><path d="M 17.195312 0.238281 L 139.242188 0.238281 C 143.804688 0.238281 148.175781 2.050781 151.402344 5.273438 C 154.628906 8.5 156.4375 12.871094 156.4375 17.433594 L 156.4375 132.566406 C 156.4375 137.128906 154.628906 141.5 151.402344 144.726562 C 148.175781 147.949219 143.804688 149.761719 139.242188 149.761719 L 17.195312 149.761719 C 12.636719 149.761719 8.261719 147.949219 5.035156 144.726562 C 1.8125 141.5 0 137.128906 0 132.566406 L 0 17.433594 C 0 12.871094 1.8125 8.5 5.035156 5.273438 C 8.261719 2.050781 12.636719 0.238281 17.195312 0.238281 Z M 17.195312 0.238281 " clip-rule="nonzero"/></clipPath><clipPath id="c750dbef95"><path d="M 108.78125 107.035156 L 149.753906 107.035156 L 149.753906 143.980469 L 108.78125 143.980469 Z M 108.78125 107.035156 " clip-rule="nonzero"/></clipPath><clipPath id="43fbbef1c0"><path d="M 126.117188 107.179688 L 132.46875 107.179688 C 137.027344 107.179688 141.402344 108.992188 144.625 112.214844 C 147.851562 115.441406 149.664062 119.8125 149.664062 124.375 L 149.664062 126.785156 C 149.664062 131.347656 147.851562 135.722656 144.625 138.945312 C 141.402344 142.171875 137.027344 143.980469 132.46875 143.980469 L 126.117188 143.980469 C 121.558594 143.980469 117.183594 142.171875 113.960938 138.945312 C 110.734375 135.722656 108.921875 131.347656 108.921875 126.785156 L 108.921875 124.375 C 108.921875 119.8125 110.734375 115.441406 113.960938 112.214844 C 117.183594 108.992188 121.558594 107.179688 126.117188 107.179688 Z M 126.117188 107.179688 " clip-rule="nonzero"/></clipPath></defs><g clip-path="url(#893a2cfa01)"><g clip-path="url(#80c615642f)"><path fill="#1ce6d2" d="M 0 0.238281 L 156.535156 0.238281 L 156.535156 149.761719 L 0 149.761719 Z M 0 0.238281 " fill-opacity="1" fill-rule="nonzero"/></g></g><g fill="#000000" fill-opacity="1"><g transform="translate(10.086069, 94.438288)"><g><path d="M 42.792969 -16.589844 L 35.074219 -16.589844 L 35.074219 -48.042969 L 21.0625 -48.042969 L 1.785156 -17.253906 L 1.785156 -9.1875 L 25.222656 -9.1875 L 25.222656 0 L 35.074219 0 L 35.074219 -9.1875 L 42.792969 -9.1875 Z M 10.675781 -16.589844 L 25.222656 -40.816406 L 25.222656 -16.589844 Z M 10.675781 -16.589844 "/></g></g></g><g fill="#000000" fill-opacity="1"><g transform="translate(56.125723, 94.438288)"><g><path d="M 22.882812 -31.011719 C 20.464844 -31.011719 17.933594 -30.789062 15.355469 -30.347656 L 17.269531 -39.992188 L 37.101562 -39.992188 L 39.011719 -48.027344 L 9.882812 -48.027344 L 5.410156 -23.625 L 19.183594 -23.625 C 28.039062 -23.625 30.980469 -20.367188 30.980469 -15.59375 C 30.980469 -10.832031 27.878906 -7.542969 22.171875 -7.542969 C 17.726562 -7.542969 13.457031 -9.742188 13.457031 -15.070312 L 13.457031 -17.03125 L 3.714844 -17.03125 L 3.714844 -14.4375 C 3.714844 -4.886719 12.289062 0.679688 22.394531 0.679688 C 33.414062 0.679688 40.847656 -5.851562 40.847656 -15.925781 C 40.847656 -25.585938 33.828125 -31.011719 22.882812 -31.011719 Z M 22.882812 -31.011719 "/></g></g></g><g fill="#000000" fill-opacity="1"><g transform="translate(102.165377, 94.438288)"><g><path d="M 22.125 0.648438 C 34.046875 0.648438 41.003906 -7.480469 41.003906 -24.054688 C 41.003906 -40.625 34.109375 -48.691406 22.125 -48.691406 C 10.058594 -48.691406 3.195312 -40.625 3.195312 -24.054688 C 3.195312 -7.480469 10.121094 0.648438 22.125 0.648438 Z M 22.125 -6.59375 C 16.460938 -6.59375 13.09375 -11.6875 13.09375 -24.054688 C 13.09375 -36.546875 16.558594 -41.449219 22.125 -41.449219 C 27.59375 -41.449219 31.121094 -36.546875 31.121094 -24.054688 C 31.121094 -11.6875 27.707031 -6.59375 22.125 -6.59375 Z M 22.125 -6.59375 "/></g></g></g><g clip-path="url(#c750dbef95)"><g clip-path="url(#43fbbef1c0)"><path fill="#000000" d="M 108.921875 107.179688 L 149.609375 107.179688 L 149.609375 143.980469 L 108.921875 143.980469 Z M 108.921875 107.179688 " fill-opacity="1" fill-rule="nonzero"/></g></g><g fill="#ffffff" fill-opacity="1"><g transform="translate(118.541623, 128.112316)"><g><path d="M 4.03125 0.140625 C 5.859375 0.140625 7.285156 -0.976562 7.632812 -2.667969 L 6 -2.667969 C 5.710938 -1.871094 4.976562 -1.363281 4.058594 -1.363281 C 2.875 -1.363281 2.039062 -2.230469 2.039062 -3.484375 C 2.039062 -4.738281 2.886719 -5.601562 4.070312 -5.601562 C 4.957031 -5.601562 5.683594 -5.125 5.949219 -4.359375 L 7.582031 -4.359375 C 7.183594 -6.03125 5.792969 -7.105469 4.019531 -7.105469 C 1.910156 -7.105469 0.429688 -5.613281 0.429688 -3.484375 C 0.429688 -1.351562 1.910156 0.140625 4.03125 0.140625 Z M 4.03125 0.140625 "/></g></g></g><g fill="#ffffff" fill-opacity="1"><g transform="translate(126.8528, 128.112316)"><g><path d="M 0.835938 0 L 2.417969 0 L 2.417969 -2.398438 L 4.945312 -2.398438 L 4.945312 -3.792969 L 2.417969 -3.792969 L 2.417969 -5.53125 L 5.203125 -5.53125 L 5.203125 -6.964844 L 0.835938 -6.964844 Z M 0.835938 0 "/></g></g></g><g fill="#ffffff" fill-opacity="1"><g transform="translate(132.778123, 128.112316)"><g><path d="M 0.0898438 0 L 1.78125 0 L 2.25 -1.203125 L 5.015625 -1.203125 L 5.484375 0 L 7.175781 0 L 4.410156 -6.964844 L 2.855469 -6.964844 Z M 2.65625 -2.449219 L 3.632812 -4.996094 L 4.617188 -2.449219 Z M 2.65625 -2.449219 "/></g></g></g></svg>